<?xml version="1.0" encoding="UTF-8"?>
<!-- RF Hub — SF Symbols 风格线条图标 sprite
     通过 <use href="assets/icons.svg#..."> 引用，currentColor 继承，
     同源可缓存，1.5px stroke round cap/join -->
<svg xmlns="http://www.w3.org/2000/svg" style="display:none">
  <defs>
    <symbol id="icon-satellite" fill="none" stroke="currentColor" stroke-width="1.5" stroke-linecap="round" stroke-linejoin="round" viewBox="0 0 24 24">
      <path d="M4.5 19.5 9 15"/>
      <path d="M9 15l3-3"/>
      <path d="M12 12l6-6"/>
      <path d="M15 9l3-3"/>
      <path d="M5 19a3.5 3.5 0 0 0 5 0"/>
      <path d="M12 4.5a7.5 7.5 0 0 1 7.5 7.5"/>
      <path d="M12 8.5a3.5 3.5 0 0 1 3.5 3.5"/>
      <path d="M14.5 9.5a1 1 0 0 1 1 1"/>
    </symbol>
    <symbol id="icon-wrench" fill="none" stroke="currentColor" stroke-width="1.5" stroke-linecap="round" stroke-linejoin="round" viewBox="0 0 24 24">
      <path d="M14.7 6.3a4 4 0 0 0-5.4 5.4l-6 6a2 2 0 1 0 2.8 2.8l6-6a4 4 0 0 0 5.4-5.4l-2.6 2.6-2.1-.5-.5-2.1 2.4-2.4z"/>
    </symbol>
    <symbol id="icon-people" fill="none" stroke="currentColor" stroke-width="1.5" stroke-linecap="round" stroke-linejoin="round" viewBox="0 0 24 24">
      <circle cx="9" cy="8" r="3.2"/>
      <path d="M3.5 19.5a5.5 5.5 0 0 1 11 0"/>
      <path d="M16 5.2a3 3 0 0 1 0 5.6"/>
      <path d="M17.5 14.2a5.5 5.5 0 0 1 3 5.3"/>
    </symbol>
    <symbol id="icon-calendar" fill="none" stroke="currentColor" stroke-width="1.5" stroke-linecap="round" stroke-linejoin="round" viewBox="0 0 24 24">
      <rect x="3.5" y="5" width="17" height="15" rx="2.5"/>
      <path d="M3.5 9.5h17"/>
      <path d="M7 3.5v3.5"/>
      <path d="M17 3.5v3.5"/>
      <path d="M7 14h2"/>
      <path d="M11 14h2"/>
      <path d="M15 14h2"/>
    </symbol>
    <symbol id="icon-pen" fill="none" stroke="currentColor" stroke-width="1.5" stroke-linecap="round" stroke-linejoin="round" viewBox="0 0 24 24">
      <path d="M14.5 5.5 18.5 9.5"/>
      <path d="M5.5 14.5 14.5 5.5 18.5 9.5 9.5 18.5 5.5 18.5z"/>
      <path d="M5 19l-1.5 1.5"/>
      <path d="M5 19l4.5-.5"/>
    </symbol>
    <symbol id="icon-book" fill="none" stroke="currentColor" stroke-width="1.5" stroke-linecap="round" stroke-linejoin="round" viewBox="0 0 24 24">
      <path d="M4.5 5.5a2 2 0 0 1 2-2h6v15h-6a2 2 0 0 0-2 2z"/>
      <path d="M19.5 5.5a2 2 0 0 0-2-2h-6v15h6a2 2 0 0 1 2 2z"/>
      <path d="M4.5 20.5v0"/>
    </symbol>
    <symbol id="icon-newspaper" fill="none" stroke="currentColor" stroke-width="1.5" stroke-linecap="round" stroke-linejoin="round" viewBox="0 0 24 24">
      <rect x="3.5" y="5" width="14.5" height="14" rx="2"/>
      <path d="M18 8.5h2.5v9a2 2 0 0 1-4 0"/>
      <path d="M6 9h7"/>
      <path d="M6 12.5h7"/>
      <path d="M6 16h4"/>
    </symbol>
    <symbol id="icon-graduation" fill="none" stroke="currentColor" stroke-width="1.5" stroke-linecap="round" stroke-linejoin="round" viewBox="0 0 24 24">
      <path d="M2.5 9.5 12 5l9.5 4.5L12 14z"/>
      <path d="M6 11.5v4.5c0 1.4 2.7 2.5 6 2.5s6-1.1 6-2.5v-4.5"/>
      <path d="M21.5 9.5v5"/>
    </symbol>
    <symbol id="icon-factory" fill="none" stroke="currentColor" stroke-width="1.5" stroke-linecap="round" stroke-linejoin="round" viewBox="0 0 24 24">
      <path d="M3.5 20.5v-9l6 4v-4l6 4v-6a2 2 0 0 1 2-2h1a1 1 0 0 1 1 1v12z"/>
      <path d="M3.5 20.5h17"/>
      <path d="M8 8.5h0"/>
    </symbol>
    <symbol id="icon-ruler" fill="none" stroke="currentColor" stroke-width="1.5" stroke-linecap="round" stroke-linejoin="round" viewBox="0 0 24 24">
      <rect x="3.5" y="8" width="17" height="8" rx="1.5" transform="rotate(0 12 12)"/>
      <path d="M7 8v3"/>
      <path d="M11 8v3"/>
      <path d="M15 8v3"/>
      <path d="M19 8v3"/>
    </symbol>
    <symbol id="icon-search" fill="none" stroke="currentColor" stroke-width="1.5" stroke-linecap="round" stroke-linejoin="round" viewBox="0 0 24 24">
      <circle cx="10.5" cy="10.5" r="6.5"/>
      <path d="M15.5 15.5 20 20"/>
    </symbol>
    <symbol id="icon-refresh" fill="none" stroke="currentColor" stroke-width="1.5" stroke-linecap="round" stroke-linejoin="round" viewBox="0 0 24 24">
      <path d="M19 12a7 7 0 1 1-2-4.9"/>
      <path d="M19 4.5v3.5h-3.5"/>
    </symbol>
    <symbol id="icon-close" fill="none" stroke="currentColor" stroke-width="1.5" stroke-linecap="round" stroke-linejoin="round" viewBox="0 0 24 24">
      <path d="M6 6l12 12"/>
      <path d="M18 6L6 18"/>
    </symbol>
  </defs>
</svg>
